<svg xmlns="http://www.w3.org/2000/svg" width="26.667" height="32" viewBox="0 0 26.667 32">
  <path id="directions_bus_24dp_E8EAED_FILL0_wght300_GRAD0_opsz24" d="M183.59-828a1.289,1.289,0,0,1-.95-.384,1.289,1.289,0,0,1-.384-.95v-3.508a6.436,6.436,0,0,1-1.545-1.79,4.866,4.866,0,0,1-.711-2.6v-16.547a4.947,4.947,0,0,1,3.208-4.725q3.208-1.5,10.124-1.5,7.166,0,10.25,1.439a4.921,4.921,0,0,1,3.084,4.783v16.547a4.866,4.866,0,0,1-.711,2.6,6.435,6.435,0,0,1-1.545,1.79v3.508a1.289,1.289,0,0,1-.384.95,1.289,1.289,0,0,1-.95.384h-1.094a1.29,1.29,0,0,1-.95-.384,1.29,1.29,0,0,1-.383-.95v-2.222H186.017v2.222a1.29,1.29,0,0,1-.383.95,1.29,1.29,0,0,1-.95.384Zm9.8-27.077h0Zm7.056,11.966h0Zm-17.778-2.667H204v-6.633H182.667Zm4.448,9.436a2.231,2.231,0,0,0,1.645-.68,2.251,2.251,0,0,0,.676-1.649,2.231,2.231,0,0,0-.68-1.645,2.251,2.251,0,0,0-1.649-.676,2.232,2.232,0,0,0-1.645.68,2.252,2.252,0,0,0-.676,1.649,2.232,2.232,0,0,0,.68,1.645A2.252,2.252,0,0,0,187.115-836.342Zm12.444,0a2.231,2.231,0,0,0,1.645-.68,2.251,2.251,0,0,0,.676-1.649,2.231,2.231,0,0,0-.68-1.645,2.252,2.252,0,0,0-1.649-.676,2.232,2.232,0,0,0-1.645.68,2.252,2.252,0,0,0-.676,1.649,2.232,2.232,0,0,0,.68,1.645A2.252,2.252,0,0,0,199.56-836.342Zm-16.4-18.735h20.458q-.564-1.063-2.858-1.66a32.378,32.378,0,0,0-7.371-.6,30.5,30.5,0,0,0-7.289.624A4.954,4.954,0,0,0,183.159-855.077Zm3.063,20.855h14.222a3.424,3.424,0,0,0,2.511-1.044A3.424,3.424,0,0,0,204-837.778v-5.333H182.667v5.333a3.424,3.424,0,0,0,1.044,2.511A3.424,3.424,0,0,0,186.222-834.222Z" transform="translate(-180 860)" fill="#0069ac"/>
</svg>
