<svg xmlns="http://www.w3.org/2000/svg" width="19.059" height="24" viewBox="0 0 19.059 24">
  <path id="location_on_24dp_E8EAED_FILL0_wght300_GRAD0_opsz24" d="M187.612-848.176a2.192,2.192,0,0,0,1.611-.671,2.2,2.2,0,0,0,.669-1.613,2.193,2.193,0,0,0-.671-1.611,2.2,2.2,0,0,0-1.614-.669,2.192,2.192,0,0,0-1.611.671,2.2,2.2,0,0,0-.669,1.614,2.192,2.192,0,0,0,.671,1.611A2.2,2.2,0,0,0,187.612-848.176Zm0,9.656a32.4,32.4,0,0,0,5.67-6.362,10.264,10.264,0,0,0,1.965-5.335,7.745,7.745,0,0,0-2.194-5.676,7.338,7.338,0,0,0-5.442-2.224,7.338,7.338,0,0,0-5.442,2.224,7.744,7.744,0,0,0-2.194,5.676,10.264,10.264,0,0,0,1.965,5.335A32.407,32.407,0,0,0,187.61-838.52Zm0,2.52a40.415,40.415,0,0,1-7.148-7.687,12,12,0,0,1-2.382-6.531,9.349,9.349,0,0,1,2.827-7.076,9.366,9.366,0,0,1,6.7-2.706,9.366,9.366,0,0,1,6.7,2.706,9.349,9.349,0,0,1,2.827,7.076,12,12,0,0,1-2.382,6.531A40.415,40.415,0,0,1,187.61-836ZM187.61-850.458Z" transform="translate(-178.08 860)" fill="#fff"/>
</svg>
