<svg xmlns="http://www.w3.org/2000/svg" width="719.023" height="221.328" viewBox="0 0 719.023 221.328">
  <g id="Grupo_45" data-name="Grupo 45" transform="translate(-353 -259.408)">
    <g id="Grupo_43" data-name="Grupo 43">
      <path id="Caminho_8" data-name="Caminho 8" d="M38.134,111.715A41.713,41.713,0,0,1,21.49,108.4,39.02,39.02,0,0,1,8.226,99.152,37.682,37.682,0,0,1,0,85.315l14.539-6.25a29.36,29.36,0,0,0,9.948,12.818,24.582,24.582,0,0,0,14.667,4.655,19.882,19.882,0,0,0,7.971-1.467,12.329,12.329,0,0,0,5.229-4.017,10.155,10.155,0,0,0,1.85-6.123,9.718,9.718,0,0,0-2.488-6.886,17.577,17.577,0,0,0-7.461-4.336L26.018,67.841Q14.922,64.4,9.246,57.575A24.6,24.6,0,0,1,3.57,41.314,25.754,25.754,0,0,1,7.653,26.9a27.532,27.532,0,0,1,11.287-9.757,37.278,37.278,0,0,1,16.517-3.507,40.168,40.168,0,0,1,15.687,3A37,37,0,0,1,63.45,24.926,33.9,33.9,0,0,1,71.166,37.36L56.754,43.737A22.957,22.957,0,0,0,48.4,32.768a22.108,22.108,0,0,0-12.945-3.953A18.756,18.756,0,0,0,27.8,30.282a11.982,11.982,0,0,0-5.165,4.145,10.5,10.5,0,0,0-1.85,6.122A10.392,10.392,0,0,0,23.339,47.5a16.453,16.453,0,0,0,7.78,4.655l17.473,5.484q11.35,3.7,17.026,10.2a23.581,23.581,0,0,1,5.675,16.07,25.184,25.184,0,0,1-4.209,14.412,28.654,28.654,0,0,1-11.606,9.82,39.506,39.506,0,0,1-17.345,3.571" transform="translate(353 254.857)" fill="#ffd400"/>
      <path id="Caminho_9" data-name="Caminho 9" d="M156.914,124.55a36.139,36.139,0,0,1-18.621-4.783,35.5,35.5,0,0,1-12.945-13.009A36.231,36.231,0,0,1,120.565,88.2a36.27,36.27,0,0,1,4.719-18.494,34.55,34.55,0,0,1,12.945-12.881,36.885,36.885,0,0,1,18.685-4.719,36,36,0,0,1,13.774,2.614,33.771,33.771,0,0,1,11.032,7.207,26.747,26.747,0,0,1,6.7,10.713l-14.667,6.5a16.953,16.953,0,0,0-6.44-8.481,17.864,17.864,0,0,0-10.394-3.125,18.324,18.324,0,0,0-9.757,2.614,17.95,17.95,0,0,0-6.7,7.4,25.316,25.316,0,0,0,0,21.618,18.473,18.473,0,0,0,6.7,7.4,17.974,17.974,0,0,0,9.757,2.679,17.239,17.239,0,0,0,10.394-3.189,18.328,18.328,0,0,0,6.44-8.546l14.667,6.633a27.933,27.933,0,0,1-6.632,10.522,32.517,32.517,0,0,1-10.969,7.269,36.323,36.323,0,0,1-13.9,2.615" transform="translate(312.775 242.022)" fill="#0069ac"/>
      <path id="Caminho_10" data-name="Caminho 10" d="M384.7,124.549a36.8,36.8,0,0,1-18.428-4.719,36.177,36.177,0,0,1-13.328-12.881,35.055,35.055,0,0,1-4.974-18.621,35.063,35.063,0,0,1,4.974-18.62A36.356,36.356,0,0,1,366.2,56.826a38.844,38.844,0,0,1,37.114,0,36.032,36.032,0,0,1,13.2,12.818,35.334,35.334,0,0,1,4.91,18.684,35.055,35.055,0,0,1-4.974,18.621,36.332,36.332,0,0,1-13.263,12.881,36.719,36.719,0,0,1-18.494,4.719m0-15.3a18.455,18.455,0,0,0,10.012-2.679,18.85,18.85,0,0,0,6.759-7.461,23,23,0,0,0,2.488-10.777,22.624,22.624,0,0,0-2.488-10.713,18.971,18.971,0,0,0-6.759-7.4,19.934,19.934,0,0,0-19.96,0,18.805,18.805,0,0,0-6.824,7.4,22.639,22.639,0,0,0-2.487,10.713,23.014,23.014,0,0,0,2.487,10.777A18.246,18.246,0,0,0,384.7,109.244" transform="translate(236.907 242.023)" fill="#d9000d"/>
      <path id="Caminho_11" data-name="Caminho 11" d="M752.856,62.868a25.587,25.587,0,0,0-4-3.12,20.89,20.89,0,0,0,4.067-4.724,22.98,22.98,0,0,0,3.507-12.307,27.027,27.027,0,0,0-3.635-14.284A23.963,23.963,0,0,0,742.4,19.187a36.744,36.744,0,0,0-16.07-3.253H686.154V110.95h40.174q15.942,0,24.934-7.716t8.991-21.363a31.333,31.333,0,0,0-1.658-10.2,22.247,22.247,0,0,0-5.739-8.8m-49.23-32.139h23.594a12.133,12.133,0,0,1,8.546,2.933,10.227,10.227,0,0,1,3.188,7.907,10.846,10.846,0,0,1-3.188,8.1,11.679,11.679,0,0,1-8.546,3.125H703.627Zm35.264,61.154q-4.017,3.764-10.777,3.763H703.627V67.97h24.487q6.76,0,10.777,3.826a13.275,13.275,0,0,1,4.018,10.075,13.064,13.064,0,0,1-4.018,10.011" transform="translate(124.075 254.091)" fill="#d9000d"/>
      <path id="Caminho_12" data-name="Caminho 12" d="M380.288,110.451c-10.241,6.91-20.613,10.414-30.831,10.414-28.474,0-49.146-18.851-49.181-44.832l.005-10.487a27.622,27.622,0,0,0-3.316-13.71,23.594,23.594,0,0,0-9.246-9.246,27.361,27.361,0,0,0-13.583-3.316,25.123,25.123,0,0,0-12.945,3.252,18.013,18.013,0,0,0-5.676,5.186V13.638H238.681v96.546h16.834V69.5a16.445,16.445,0,0,1,1.786-7.907,12.5,12.5,0,0,1,4.974-5.1,15.818,15.818,0,0,1,14.6,0,12.65,12.65,0,0,1,4.91,5.1,16.475,16.475,0,0,1,1.786,7.907l-.025,10.571c0,30.114,28.334,57.521,65.908,57.521,13.612,0,27.132-4.467,40.186-13.275Z" transform="translate(273.368 254.857)" fill="#e54500"/>
      <path id="Caminho_13" data-name="Caminho 13" d="M588.663,42.556c5.822-15.5,3.682-30.464-5.453-38.124C576.9-.856,568.449-1.454,561.143,2.87c-8.867,5.248-13.305,17.724-13.191,37.083a178.563,178.563,0,0,0,1.933,23.7c-1.431.522-2.941,1.032-4.5,1.509-.971-6.545-3.958-15.16-12.647-19.271a20.776,20.776,0,0,0-21.955,2.822A18.759,18.759,0,0,0,504.4,68.192a20.2,20.2,0,0,0,10.974,13.689,26.852,26.852,0,0,0,8.364,2.392,17.841,17.841,0,0,1-15.2,7.591,18.246,18.246,0,0,1-16.771-10.139,23.015,23.015,0,0,1-2.487-10.777,22.639,22.639,0,0,1,2.487-10.713,18.8,18.8,0,0,1,6.824-7.4,17.614,17.614,0,0,1,6.109-2.332V34.918a35.941,35.941,0,0,0-14.654,4.527,36.36,36.36,0,0,0-13.263,12.882A35.066,35.066,0,0,0,471.8,70.947a35.051,35.051,0,0,0,4.974,18.62A36.178,36.178,0,0,0,490.1,102.449a38.468,38.468,0,0,0,36.922,0,36.328,36.328,0,0,0,13.263-12.881c1.161-1.9,3.29-6.934,3.29-6.934S550.49,80.742,552.7,80q4.028,20.162,11.437,44.875l15.7-4.716a457.764,457.764,0,0,1-12.051-48.4,69.741,69.741,0,0,0,20.871-29.2M521.049,61.614a3.5,3.5,0,0,1,4.681-.9c1.866.912,3.142,3.61,3.553,7.492A17.233,17.233,0,0,1,523,67.282a3.628,3.628,0,0,1-1.947-5.668m43.886-10.2q-.555-6.163-.586-11.557c-.092-15.632,3.65-21.38,5.145-22.876a2.262,2.262,0,0,1,3.18.014c2.278,2.278,4.675,9.05.639,19.794a52.755,52.755,0,0,1-8.378,14.624" transform="translate(195.591 259.407)" fill="#ffd400"/>
      <path id="Caminho_14" data-name="Caminho 14" d="M950.291,77.371q-.739-1.036-1.515-2.092A243.68,243.68,0,0,0,929.437,52.3H917.1c-4.766,5.246-8.292,13.761-12.31,23.557-4.661,11.359-10.5,31.107-18.6,31.107-8.8,0-9.269-11.464-9.269-17.816V52.3H860V89.477c0,13.331-5.936,17.845-13.847,17.845-7.753,0-14-4.976-14-17.845V52.3H815.235V90.352a33.1,33.1,0,0,0,4.182,16.164,33.551,33.551,0,0,0,11.278,12.227A28.065,28.065,0,0,0,846.3,123.35a27.6,27.6,0,0,0,15.236-4.523A32.917,32.917,0,0,0,867.407,114c5.915,5.915,10.337,9.351,19.772,9.351,17.464,0,25.79-23.148,33.161-41.113,1.437-3.5,2.9-7.061,4.324-10.182,3.161,3.654,11.114,13.92,11.377,14.286C924.164,95.6,915.122,107.9,918.129,118.4c2.965,10.358,14.556,11.9,21.2,11.9,15.527,0,21.568-6.585,23.9-12.109,2.922-6.916,1.669-15.517-3.979-26.455,3.985-2.13,15.349-5.852,20.5-1.026l11.26-12.478c-9.6-8.665-24.473-8.872-40.723-.87m-2.542,34.286c-.254.6-2.646,1.842-8.42,1.842a19,19,0,0,1-4.735-.471,40.807,40.807,0,0,1,10.343-12.282c3.893,8.058,2.829,10.87,2.811,10.91" transform="translate(81.009 241.958)" fill="#0069ac"/>
    </g>
    <g id="Grupo_44" data-name="Grupo 44">
      <path id="Caminho_15" data-name="Caminho 15" d="M684.18,268.273c0-5.327,3.356-8.871,8.377-8.871,4.06,0,7.087,2.37,7.674,6.055h-3.168a4.452,4.452,0,0,0-4.576-3.168c-3.168,0-5.163,2.3-5.163,5.961,0,3.637,2.018,5.984,5.163,5.984a4.582,4.582,0,0,0,4.67-3.121h3.121c-.658,3.614-3.8,6.007-7.861,6.007-5,0-8.237-3.473-8.237-8.847" transform="translate(124.733 172.862)" fill="#00233c"/>
      <path id="Caminho_16" data-name="Caminho 16" d="M716.927,267.678a6.1,6.1,0,1,1-6.195,6.1,5.9,5.9,0,0,1,6.195-6.1m0,9.645a3.55,3.55,0,1,0-3.332-3.544,3.276,3.276,0,0,0,3.332,3.544" transform="translate(115.874 170.1)" fill="#00233c"/>
      <path id="Caminho_17" data-name="Caminho 17" d="M732.742,279.588V268h2.652l.235,1.5a4.275,4.275,0,0,1,3.708-1.854c2.911,0,4.413,1.807,4.413,4.81v7.134h-2.863v-6.454c0-1.947-.962-2.886-2.44-2.886a2.773,2.773,0,0,0-2.84,3.1v6.243Z" transform="translate(108.531 170.112)" fill="#00233c"/>
      <path id="Caminho_18" data-name="Caminho 18" d="M752.463,271.077c0-3.614,2.112-6.2,5.608-6.2a4.381,4.381,0,0,1,3.778,1.831v-7.345h2.839v17.459h-2.628l-.187-1.807a4.318,4.318,0,0,1-3.966,2.112c-3.356,0-5.444-2.464-5.444-6.054m9.363-.094a3.239,3.239,0,0,0-3.285-3.544c-2,0-3.215,1.479-3.215,3.544s1.22,3.52,3.215,3.52a3.22,3.22,0,0,0,3.285-3.52" transform="translate(101.952 172.873)" fill="#00233c"/>
      <path id="Caminho_19" data-name="Caminho 19" d="M785.937,268.171v11.592h-2.651l-.212-1.549a4.534,4.534,0,0,1-3.754,1.854c-2.675,0-4.248-1.807-4.248-4.646v-7.251h2.863v6.242c0,2.206.868,3.1,2.464,3.1,1.807,0,2.675-1.056,2.675-3.262v-6.078Z" transform="translate(94.409 169.936)" fill="#00233c"/>
      <path id="Caminho_20" data-name="Caminho 20" d="M794.9,279.764v-2.346l5.773-6.853H794.9v-2.393h9.363v2.37L798.4,277.37h5.867v2.394Z" transform="translate(87.794 169.936)" fill="#00233c"/>
      <path id="Caminho_21" data-name="Caminho 21" d="M811.979,261.221a1.737,1.737,0,1,1,1.759,1.737,1.738,1.738,0,0,1-1.759-1.737m.328,4.06h2.863v11.592h-2.863Z" transform="translate(82.095 172.826)" fill="#00233c"/>
      <path id="Caminho_22" data-name="Caminho 22" d="M821.205,279.588V268h2.627l.235,1.361a3.859,3.859,0,0,1,3.426-1.713,3.719,3.719,0,0,1,3.59,2.206,3.865,3.865,0,0,1,3.708-2.206,4,4,0,0,1,4.365,4.365v7.58h-2.839v-6.829c0-1.666-.892-2.534-2.253-2.534-1.385,0-2.44.892-2.44,2.793v6.57h-2.863v-6.852c0-1.619-.869-2.488-2.23-2.488s-2.464.892-2.464,2.769v6.57Z" transform="translate(79.017 170.112)" fill="#00233c"/>
      <path id="Caminho_23" data-name="Caminho 23" d="M857.544,267.678a6.1,6.1,0,1,1-6.2,6.1,5.9,5.9,0,0,1,6.2-6.1m0,9.645a3.55,3.55,0,1,0-3.332-3.544,3.274,3.274,0,0,0,3.332,3.544" transform="translate(68.96 170.1)" fill="#00233c"/>
      <path id="Caminho_24" data-name="Caminho 24" d="M874.743,276.067c.023,1.009.774,1.643,2.089,1.643,1.337,0,2.064-.54,2.064-1.385,0-.586-.3-1.009-1.337-1.243l-2.088-.493c-2.088-.469-3.1-1.455-3.1-3.308,0-2.276,1.924-3.637,4.6-3.637,2.6,0,4.365,1.5,4.389,3.754h-2.723a1.6,1.6,0,0,0-1.783-1.619c-1.126,0-1.784.516-1.784,1.385,0,.657.517,1.08,1.5,1.314l2.088.492c1.948.447,2.933,1.338,2.933,3.121,0,2.347-1.995,3.8-4.857,3.8-2.887,0-4.717-1.549-4.717-3.825Z" transform="translate(62.063 170.112)" fill="#00233c"/>
      <path id="Caminho_25" data-name="Caminho 25" d="M904.346,267.678a6.1,6.1,0,1,1-6.2,6.1,5.9,5.9,0,0,1,6.2-6.1m0,9.645a3.55,3.55,0,1,0-3.332-3.544,3.276,3.276,0,0,0,3.332,3.544" transform="translate(53.345 170.1)" fill="#00233c"/>
      <path id="Caminho_26" data-name="Caminho 26" d="M933.307,269.962v7.017h-3V259.825h10.607v2.769h-7.6v4.669h6.383v2.7Z" transform="translate(42.618 172.721)" fill="#00233c"/>
      <path id="Caminho_27" data-name="Caminho 27" d="M959.235,268.171v11.592h-2.651l-.212-1.549a4.534,4.534,0,0,1-3.754,1.854c-2.675,0-4.248-1.807-4.248-4.646v-7.251h2.863v6.242c0,2.206.868,3.1,2.464,3.1,1.807,0,2.675-1.056,2.675-3.262v-6.078Z" transform="translate(36.591 169.936)" fill="#00233c"/>
      <path id="Caminho_28" data-name="Caminho 28" d="M969.615,277.954v-9.2h-2.229v-2.393h2.229v-3.614h2.863v3.614h2.253v2.393h-2.253v9.2Z" transform="translate(30.246 171.746)" fill="#00233c"/>
      <path id="Caminho_29" data-name="Caminho 29" d="M991.739,268.171v11.592h-2.651l-.212-1.549a4.534,4.534,0,0,1-3.754,1.854c-2.676,0-4.248-1.807-4.248-4.646v-7.251h2.863v6.242c0,2.206.868,3.1,2.464,3.1,1.807,0,2.676-1.056,2.676-3.262v-6.078Z" transform="translate(25.746 169.936)" fill="#00233c"/>
      <path id="Caminho_30" data-name="Caminho 30" d="M1008.892,270.67h-1.056a3.031,3.031,0,0,0-3.357,3.356v5.632h-2.863V268.089h2.7l.164,1.69a3.236,3.236,0,0,1,3.145-1.924,5.086,5.086,0,0,1,1.267.165Z" transform="translate(18.825 170.042)" fill="#00233c"/>
      <path id="Caminho_31" data-name="Caminho 31" d="M1020.031,267.678a6.1,6.1,0,1,1-6.194,6.1,5.9,5.9,0,0,1,6.194-6.1m0,9.645a3.55,3.55,0,1,0-3.332-3.544,3.275,3.275,0,0,0,3.332,3.544" transform="translate(14.749 170.1)" fill="#00233c"/>
      <path id="Caminho_32" data-name="Caminho 32" d="M683.9,311.21a5.848,5.848,0,0,1,6.008-6.219c3.684,0,5.984,2.418,5.984,6.243v.915l-8.519.047a2.369,2.369,0,0,0,2.675,2.276c1.361,0,2.324-.492,2.581-1.337h3.309c-.422,2.6-2.746,4.271-5.961,4.271a5.91,5.91,0,0,1-6.078-6.2m3.52-1.243H692.3c0-1.243-.916-2.042-2.37-2.042a2.261,2.261,0,0,0-2.511,2.042" transform="translate(124.828 157.652)" fill="#00233c"/>
      <path id="Caminho_33" data-name="Caminho 33" d="M705.1,317.1V305.367h3.379l.235,1.22a4.1,4.1,0,0,1,3.426-1.6,3.8,3.8,0,0,1,3.567,2.064,3.978,3.978,0,0,1,3.684-2.064c3.027,0,4.529,1.76,4.529,4.435V317.1H720.3v-6.665c0-1.478-.774-2.182-1.924-2.182-1.033,0-2.066.563-2.066,2.557V317.1H712.7v-6.665c0-1.455-.751-2.158-1.9-2.158-1.033,0-2.088.563-2.088,2.534V317.1Z" transform="translate(117.755 157.651)" fill="#00233c"/>
      <path id="Caminho_34" data-name="Caminho 34" d="M747.216,297.1h7.228c3.5,0,5.608,1.831,5.608,4.81a3.948,3.948,0,0,1-2.418,3.9,3.717,3.717,0,0,1,2.629,3.872c0,3.074-2.065,4.787-5.819,4.787h-7.228Zm3.8,3.332v3.778h3.027c1.361,0,2.112-.681,2.112-1.924,0-1.221-.728-1.854-2.112-1.854Zm0,6.97v3.731h3.215c1.408,0,2.135-.634,2.135-1.924,0-1.173-.75-1.807-2.135-1.807Z" transform="translate(103.703 160.283)" fill="#00233c"/>
      <path id="Caminho_35" data-name="Caminho 35" d="M778.038,308.875h-1.15c-2.065,0-3.309.915-3.309,3.239v5.092h-3.614V305.5h3.4l.188,1.737a3.147,3.147,0,0,1,3.1-1.924,6,6,0,0,1,1.384.165Z" transform="translate(96.113 157.546)" fill="#00233c"/>
      <path id="Caminho_36" data-name="Caminho 36" d="M783.384,313.651c0-2.159,1.525-3.5,4.341-3.708l3.285-.259V309.5c0-1.15-.7-1.76-1.994-1.76-1.525,0-2.347.586-2.347,1.642h-3c0-2.652,2.182-4.388,5.537-4.388,3.4,0,5.327,1.9,5.327,5.257V317.1h-3.191l-.235-1.549c-.376,1.08-1.924,1.854-3.684,1.854-2.487,0-4.036-1.455-4.036-3.754m7.65-.939v-.634l-1.831.165c-1.572.141-2.135.492-2.135,1.243,0,.845.516,1.244,1.619,1.244,1.385,0,2.346-.681,2.346-2.018" transform="translate(91.636 157.651)" fill="#00233c"/>
      <path id="Caminho_37" data-name="Caminho 37" d="M808.714,304.957a4.061,4.061,0,0,1,3.5,1.572l.187-1.173h3.4v10.982c0,4.2-2.416,6.734-6.43,6.734-3.59,0-6.007-2.041-6.336-5.374h3.66c.071,1.314,1.056,2.088,2.652,2.088a2.578,2.578,0,0,0,2.84-2.7v-1.525a4.615,4.615,0,0,1-3.544,1.385c-3.285,0-5.561-2.417-5.561-5.937,0-3.566,2.323-6.054,5.631-6.054m.728,8.847a2.663,2.663,0,0,0,2.746-2.886,2.735,2.735,0,1,0-5.468,0,2.7,2.7,0,0,0,2.722,2.886" transform="translate(85.079 157.663)" fill="#00233c"/>
      <path id="Caminho_38" data-name="Caminho 38" d="M825.538,313.651c0-2.159,1.525-3.5,4.341-3.708l3.286-.259V309.5c0-1.15-.7-1.76-1.994-1.76-1.525,0-2.347.586-2.347,1.642h-3c0-2.652,2.181-4.388,5.537-4.388,3.4,0,5.327,1.9,5.327,5.257V317.1h-3.191l-.235-1.549c-.376,1.08-1.924,1.854-3.684,1.854-2.487,0-4.036-1.455-4.036-3.754m7.65-.939v-.634l-1.831.165c-1.573.141-2.135.492-2.135,1.243,0,.845.516,1.244,1.619,1.244,1.385,0,2.346-.681,2.346-2.018" transform="translate(77.571 157.651)" fill="#00233c"/>
    </g>
  </g>
</svg>
