<?xml version="1.0" encoding="UTF-8"?>
<svg id="Layer_1" xmlns="http://www.w3.org/2000/svg" version="1.1" viewBox="0 0 70.3 11.4">
  <!-- Generator: Adobe Illustrator 29.0.1, SVG Export Plug-In . SVG Version: 2.1.0 Build 192)  -->
  <defs>
    <style>
      .st0 {
        fill: #fff;
      }
    </style>
  </defs>
  <g id="Grupo_3766">
    <g id="Grupo_53">
      <g id="Grupo_3082">
        <g id="Grupo_3070">
          <path id="Caminho_9552" class="st0" d="M4.1.3h0c-.3-.1-.6-.2-1-.2-.6,0-1.1.2-1.4.7-.4.5-.6,1.1-.5,1.8v.6H0v1.4h1.2v6.6h1.5v-6.6h1.5v-1.4h-1.5v-.6c0-.3,0-.5.2-.8.1-.2.3-.3.5-.3.2,0,.4,0,.6.1.3.1.7,0,.7-.6,0-.3-.2-.6-.5-.8"/>
        </g>
        <g id="Grupo_3071">
          <path id="Caminho_9553" class="st0" d="M8.5,4.3h0c-.2-.1-.5-.2-.8-.2-.4,0-.9.1-1.2.4,0,0-.2.1-.2.2v-.5h-1.5v7.1h1.5v-3.9c0-.5.1-1,.4-1.4.2-.3.6-.5,1-.5.2,0,.4,0,.6.1h.2c0,.1.2,0,.2,0,.1-.2.2-.3.2-.6,0-.3-.1-.5-.4-.7"/>
        </g>
        <g id="Grupo_3072">
          <path id="Caminho_9554" class="st0" d="M15.1,10.1h0c0-.2,0-.5,0-.8v-2.8c0-.7-.2-1.4-.7-1.8-.5-.5-1.2-.7-1.9-.7-.5,0-1.1.1-1.6.4-.5.2-.9.6-1.3,1l-.2.2v.2c.2.1.4.3.5.4.2.2.6.2.9,0,.2-.3.5-.5.9-.7.3-.1.5-.2.8-.2.3,0,.7,0,1,.3.2.3.3.6.3.9h0c-1,0-2,.3-3,.8-.8.4-1.2,1.2-1.2,2,0,.6.2,1.1.7,1.5.5.4,1,.6,1.6.5.5,0,1-.1,1.4-.3.2-.1.4-.2.6-.4,0,0,0,.2.1.2.1.3.4.4.7.4.1,0,.3,0,.4-.1.1,0,.3-.1.4-.3l.2-.2-.2-.2c-.1-.1-.2-.3-.2-.4M11.7,10.1c-.8,0-.9-.3-.9-.7,0-.8.9-1.3,2.7-1.4v1c-.2.3-.5.6-.8.8-.3.2-.7.3-1,.3"/>
        </g>
        <g id="Grupo_3073">
          <path id="Caminho_9555" class="st0" d="M23,4.1c-.5,0-.9,0-1.3.2-.3.1-.6.3-.8.5-.2-.2-.3-.3-.6-.5-.4-.2-.7-.3-1.2-.3-.4,0-.8,0-1.2.2-.2,0-.4.2-.6.3,0-.3-.3-.4-.6-.4-.3,0-.5,0-.7.2h-.3c0,.1.1.4.1.4.1.6.2,1.3.1,1.9v4.6h1.5v-5.2c.2-.2.5-.4.7-.5.3-.1.5-.2.8-.2.5,0,.9.3.9.8,0,0,0,0,0,.1v5h1.5v-5.1s0-.1,0-.2c.4-.4.9-.7,1.5-.7.2,0,.5,0,.7.2.2.2.2.5.2.8v4.9h1.5v-5c0-.6-.2-1.2-.6-1.6-.4-.4-1-.7-1.6-.6"/>
        </g>
        <g id="Grupo_3074">
          <path id="Caminho_9556" class="st0" d="M29.1,4.1c-.9,0-1.8.3-2.4,1-.6.8-.9,1.7-.9,2.7,0,.7.1,1.3.4,1.9.2.5.6,1,1.1,1.3.5.3,1.1.5,1.7.5.6,0,1.3-.2,1.8-.5.5-.3.9-.8,1.1-1.4v-.2c0,0-.1-.1-.1-.1-.2-.2-.4-.3-.7-.3-.2,0-.4.1-.5.3-.1.3-.3.5-.6.7-.3.1-.6.2-.9.2-.5,0-.9-.2-1.2-.5-.3-.4-.4-.9-.5-1.4h4.6v-.3c0-.2,0-.4,0-.6,0-.9-.2-1.7-.8-2.3-.6-.6-1.4-.9-2.2-.9M29.1,5.4c.9,0,1.4.5,1.5,1.4h-3.1c0-.4.2-.7.5-1,.3-.3.7-.5,1.2-.4"/>
        </g>
        <g id="Grupo_3075">
          <path id="Caminho_9557" class="st0" d="M40.9,5c-.2,1.6-.6,3.2-1.3,4.7-.7-1.6-1.3-3.4-1.5-5.1v-.3h-1.3v.3c-.3,1.8-.9,3.5-1.6,5.1-.3-.7-.5-1.4-.7-2.2-.2-.8-.4-1.7-.5-2.5h0c0-.4-.3-.7-.7-.7h-.9v.4c.3,1.2.5,2.4.9,3.6.3,1,.7,2,1.2,2.9v.2h1.4v-.2c.5-.8.9-1.6,1.3-2.4.1-.3.2-.6.3-1,0,.3.2.6.3.9.3.8.7,1.7,1.1,2.5v.2h1.4v-.2c1.2-2,1.9-4.3,2.2-6.5v-.4c0,0-.9,0-.9,0-.3,0-.6.2-.7.5v.2Z"/>
        </g>
        <g id="Grupo_3076">
          <path id="Caminho_9558" class="st0" d="M61.2,4.3h0c-.2-.1-.5-.2-.8-.2-.4,0-.9.1-1.2.4,0,0-.2.1-.2.2v-.5h-1.5v7.1h1.5v-3.9c0-.5.1-1,.4-1.4.2-.3.6-.5,1-.5.2,0,.4,0,.6.1h.2c0,.1.2,0,.2,0,.1-.2.2-.4.2-.6,0-.3-.1-.5-.4-.7"/>
        </g>
        <g id="Grupo_3077">
          <path id="Caminho_9559" class="st0" d="M65.5,6.7l2-2.8h-1.8s-1.4,2-1.4,2c0,0-.1.2-.2.2,0,0-.2,0-.3,0h-.1V0h-1.5v11.3h1.5v-3.5h.2c.4,0,.7,0,.9.4l1.5,2.8c.1.2.4.4.6.4h1.4s-2.3-4.1-2.3-4.1c-.1-.2-.3-.4-.5-.6"/>
        </g>
        <g id="Grupo_3078">
          <rect id="Retângulo_1" class="st0" x="65.7" width=".4" height="2.7"/>
        </g>
        <g id="Grupo_3079">
          <path id="Caminho_9560" class="st0" d="M68.1,2.4c0,0,0-.1,0-.2v-.8c0-.2,0-.4-.2-.5-.1-.1-.3-.2-.5-.2-.1,0-.3,0-.4.1-.1,0-.3.2-.4.3h0c0,0,0,.1,0,.1,0,0,0,0,0,.1,0,0,.2,0,.2,0,0,0,.1-.1.2-.2,0,0,.1,0,.2,0,0,0,.2,0,.3,0,0,0,0,.2,0,.2h0c-.3,0-.6,0-.8.2-.2.1-.3.3-.3.5,0,.2,0,.3.2.4.1.1.3.2.4.1.1,0,.3,0,.4,0,0,0,.1,0,.2-.1,0,0,0,0,0,0,0,0,.1.1.2.1,0,0,0,0,.1,0,0,0,0,0,.1,0h0c0,0,0-.1,0-.1,0,0,0,0,0-.1M67.2,2.4c-.2,0-.2-.1-.2-.2,0-.2.2-.3.7-.4v.3c0,0-.1.2-.2.2,0,0-.2,0-.3,0"/>
        </g>
        <g id="Grupo_3080">
          <path id="Caminho_9561" class="st0" d="M70.1,1h0c-.2-.2-.4-.3-.6-.3-.2,0-.3,0-.4,0V0h-.4v2.2c0,.1,0,.2,0,.3h0c0,0,0,.1,0,.1,0,0,.1,0,.2,0,0,0,.1,0,.2-.1.1,0,.3.1.5.1.2,0,.5,0,.6-.3.2-.2.2-.5.2-.7,0-.3,0-.5-.2-.7M69.8,2.2c0,.1-.2.2-.3.2-.2,0-.3,0-.4-.2v-.9c.1,0,.3-.1.4-.1.1,0,.2,0,.3.1,0,.1.1.3.1.5,0,.2,0,.4-.1.5"/>
        </g>
        <g id="Grupo_3081">
          <path id="Caminho_9562" class="st0" d="M53.3,4.1c-1,0-1.9.4-2.6,1.2h0c-.3.3-.3.7,0,1,.3.3.8.3,1.1,0,.4-.4.9-.7,1.5-.6,1.2,0,2.1,1,2.1,2.1,0,0,0,0,0,0,0,.6-.2,1.1-.6,1.5-.7.8-2,.9-2.8.1,0,0-.1-.1-.2-.2l-3.1-3.8c-.7-.8-1.7-1.3-2.7-1.3h0c-.9,0-1.9.4-2.5,1.1-1.4,1.5-1.4,3.8.1,5.2.7.6,1.5,1,2.4,1,1,0,2-.5,2.7-1.3.2-.3.2-.6,0-.9h0c-.3-.3-.7-.4-1,0,0,0,0,0,0,0-.4.5-1,.7-1.6.7-1.2,0-2.1-1-2.1-2.1,0-.6.2-1.1.6-1.6.4-.4.9-.6,1.4-.6.6,0,1.2.3,1.6.8l3.1,3.8c.7.8,1.6,1.2,2.6,1.2h0c1,0,1.9-.4,2.5-1.1.7-.7,1-1.6,1-2.6,0-2-1.6-3.6-3.6-3.6"/>
        </g>
      </g>
    </g>
  </g>
</svg>