<svg xmlns="http://www.w3.org/2000/svg" xmlns:xlink="http://www.w3.org/1999/xlink" width="201.07" height="75.389" viewBox="0 0 201.07 75.389">
  <defs>
    <clipPath id="clip-path">
      <rect id="Retângulo_3" data-name="Retângulo 3" width="201.07" height="75.389" fill="none"/>
    </clipPath>
  </defs>
  <g id="Grupo_7" data-name="Grupo 7" transform="translate(12.112 3.791)">
    <text id="_2024_2025" data-name="2024/2025" transform="translate(7.198 40.634)" fill="#e86024" stroke="#e54400" stroke-width="1" font-size="39" font-family="CanvasScript-Reg, Canvas Script"><tspan x="0" y="0">2024/2025</tspan></text>
    <g id="Grupo_6" data-name="Grupo 6" transform="translate(-12.112 -3.791)">
      <g id="Grupo_5" data-name="Grupo 5" clip-path="url(#clip-path)">
        <path id="Caminho_39" data-name="Caminho 39" d="M242.082,68.672c-.036-.349-.356-.259-.591.641l.264.794Z" transform="translate(-59.706 -16.932)" fill="#eb7440"/>
        <path id="Caminho_40" data-name="Caminho 40" d="M237.632,74.552c-.345,1.027-.8,2.279,0,1.987a13.656,13.656,0,0,0,.682-2.563,3.741,3.741,0,0,1,.616-.945c.179-.207.324-.285.374-.173.032-.346.72-1.265.592-1.853a14.826,14.826,0,0,0-2.017,3.783c-.273.226-.206-.122-.243-.235" transform="translate(-58.641 -17.555)" fill="#eb7440"/>
        <path id="Caminho_41" data-name="Caminho 41" d="M127.183,96.947l.56.094a3.478,3.478,0,0,0-.56-.094" transform="translate(-31.444 -23.969)" fill="#eb7440"/>
        <path id="Caminho_42" data-name="Caminho 42" d="M56.22,84.731c.4.108.576.111.609.072-.376-.077-.684-.142-.609-.072" transform="translate(-13.897 -20.941)" fill="#eb7440"/>
        <path id="Caminho_43" data-name="Caminho 43" d="M44.887,80.128l.489.232a1.241,1.241,0,0,0-.489-.232" transform="translate(-11.098 -19.811)" fill="#eb7440"/>
        <path id="Caminho_44" data-name="Caminho 44" d="M126.707,96.866l-1.438-.246c-.113.156.734.166,1.438.246" transform="translate(-30.969 -23.888)" fill="#eb7440"/>
        <path id="Caminho_45" data-name="Caminho 45" d="M226.931,87.868a4.774,4.774,0,0,0,.63-.536l-.628.443a.387.387,0,0,1,0,.093" transform="translate(-56.106 -21.592)" fill="#eb7440"/>
        <path id="Caminho_46" data-name="Caminho 46" d="M158.982,97.07l.44-.009a2.35,2.35,0,0,0,.362-.209Z" transform="translate(-39.306 -23.945)" fill="#eb7440"/>
        <path id="Caminho_47" data-name="Caminho 47" d="M183.107,95.762c-.416.015-.524.448-.668.645a1.753,1.753,0,0,1,.879-.361c0-.081-.062-.172-.212-.284" transform="translate(-45.106 -23.676)" fill="#eb7440"/>
        <path id="Caminho_48" data-name="Caminho 48" d="M220.963,88.542l.44-.271-.44.271" transform="translate(-54.63 -21.824)" fill="#eb7440"/>
        <path id="Caminho_49" data-name="Caminho 49" d="M141.475,96.909a.356.356,0,0,0-.163-.155c0,.053.063.105.163.155" transform="translate(-34.938 -23.921)" fill="#eb7440"/>
        <path id="Caminho_50" data-name="Caminho 50" d="M46.775,84.048c.019-.028,0-.05.008-.075-.113.029-.15.056-.008.075" transform="translate(-11.542 -20.761)" fill="#eb7440"/>
        <path id="Caminho_51" data-name="Caminho 51" d="M19.149,76.729l.3.03a.671.671,0,0,0,.109-.221Z" transform="translate(-4.734 -18.923)" fill="#eb7440"/>
        <path id="Caminho_52" data-name="Caminho 52" d="M25.577,69.478l.057.047c.389.2.179.07-.057-.047" transform="translate(-6.324 -17.178)" fill="#eb7440"/>
        <path id="Caminho_53" data-name="Caminho 53" d="M153.867,8.226c-1.722-.543,2.908-.212.3-.881.23.187-2.468.434-.3.881" transform="translate(-37.832 -1.816)" fill="#eb7440"/>
        <path id="Caminho_54" data-name="Caminho 54" d="M226.109,88.321c-.219.135-.448.261-.678.386a5.325,5.325,0,0,0,.678-.386" transform="translate(-55.735 -21.836)" fill="#eb7440"/>
        <path id="Caminho_55" data-name="Caminho 55" d="M154.458,7.323v0l-.269-.065.269.069" transform="translate(-38.121 -1.793)" fill="#eb7440"/>
        <path id="Caminho_56" data-name="Caminho 56" d="M8.065,29.982a1.007,1.007,0,0,0-.349.228c.042.009.13-.038.349-.228" transform="translate(-1.908 -7.413)" fill="#eb7440"/>
        <path id="Caminho_57" data-name="Caminho 57" d="M14.628,62.151l-.464-.531a6.114,6.114,0,0,0,.464.531" transform="translate(-3.502 -15.235)" fill="#eb7440"/>
        <path id="Caminho_58" data-name="Caminho 58" d="M21.422,16.5a3.726,3.726,0,0,0,.927-.446.82.82,0,0,0-.163.027,1.887,1.887,0,0,1-.764.419" transform="translate(-5.296 -3.969)" fill="#eb7440"/>
        <path id="Caminho_59" data-name="Caminho 59" d="M40.536,10.005c-.088-.014-.2-.014-.3-.02l-.478.13Z" transform="translate(-9.83 -2.469)" fill="#eb7440"/>
        <path id="Caminho_60" data-name="Caminho 60" d="M110.307,87.336a2.468,2.468,0,0,1-.735-.383c.247.3-2.084.4.735.383" transform="translate(-26.924 -21.498)" fill="#eb7440"/>
        <path id="Caminho_61" data-name="Caminho 61" d="M226.653,87.777a.682.682,0,0,1-.321.408l.453-.3c.008-.079-.014-.135-.132-.107" transform="translate(-55.958 -21.7)" fill="#eb7440"/>
        <path id="Caminho_62" data-name="Caminho 62" d="M20.125,11.966c.795-.385,1.6-.748,2.41-1.075a22.268,22.268,0,0,0-2.41,1.075" transform="translate(-4.976 -2.693)" fill="#eb7440"/>
        <path id="Caminho_63" data-name="Caminho 63" d="M258.96,61.692l-.407.473a2,2,0,0,0,.407-.473" transform="translate(-63.924 -15.253)" fill="#eb7440"/>
        <path id="Caminho_64" data-name="Caminho 64" d="M32.979,7.3a7.677,7.677,0,0,0,1.475-.1,1.292,1.292,0,0,0,.261-.18Z" transform="translate(-8.154 -1.736)" fill="#eb7440"/>
        <path id="Caminho_65" data-name="Caminho 65" d="M109.785,86.947c.005,0,.005,0,.005,0s0,0-.005,0" transform="translate(-27.143 -21.497)" fill="#eb7440"/>
        <path id="Caminho_66" data-name="Caminho 66" d="M66.019,66.2c2.405.085,1.148-.51,1.668-.814,2.87-.071,1.314.45,2.282.764,1.8-.1,3.178-.537,4.512-.528.1.092.358.126.051.24,1.9-.435,5.62,0,7.821-.547a.694.694,0,0,1,.288.139c-.358-.28-.415-.563-.343-.764,1.074,0,1.988-.369,2.4-.012a1.775,1.775,0,0,0-1.018.271l1.123-.182c1.02.5-1.534.217-1.53.6a50.007,50.007,0,0,1,6.429-.591c.364.5-3.931.257-1.676.663l-2.608-.14c2,.764-1.585-.022.258.8,3.438.074,3.835-.343,7.263-.268.761-.3-.269-.413.492-.718,4.832-.732,3.878,1.11,7.422.265a5.277,5.277,0,0,1,3.787-.852l-.831.638c3.319-.173,1.838-.961,5.332-.813-.6.269-2.59.372-2.084.406,2.279.3,1.568-.437,3.293-.557l.4.486c.881-.083,1.783-.178,2.7-.3l2.79-.418c1.886-.288,3.819-.581,5.762-.806-.2.172-.853.392.075.464,2.446-.356,5.06-.671,7.668-.869l7.578-.547,1.746-.679c.419-.051.8.093.362.239,1.863-.081.057-.291.918-.581,1.042-.17,1.417.067.772.287,1.6-.385,3.874-.95,6.185-1.4a42.92,42.92,0,0,1,6.4-.843l-.641.243c2.678-.279,2.836-1.407,5.357-1.423l-.457.158c1.444-.2,2.918-.443,4.389-.7l4.349-.83a63.349,63.349,0,0,1,7.781-1.092c.352-.4,1.786-.625,3.161-.909s2.687-.635,2.749-1.113l3.1-.436a19.591,19.591,0,0,0,4.063-1.214c1.219-.535,1.525-1.363,2.856-2.276l.279.373c.549-.522,1.073-1.092,1.573-1.659l1.283-.308c.364-.381.743-.741,1.086-1.137-.467.417-1.123.726-1.134.565.86-.845,1.916-1.849,2.784-2.667s1.514-1.475,1.639-1.428a18.93,18.93,0,0,0,2.2-5.461c.159.184-.1,1.148-.3,1.926.364-1.57.485-1.671.641-1.746.077-.035.152-.063.233-.27a4.205,4.205,0,0,0,.212-1.345c-.18.37-.23-.265-.31-.344a9.152,9.152,0,0,0,.474-3.243c-.021-.337-.042-.682-.064-1.03s-.116-.683-.177-1.023a9.494,9.494,0,0,0-.513-1.917l.458.37a15.423,15.423,0,0,0-3.353-6.228,24.439,24.439,0,0,0-5.5-4.629c1.342,1.087.68,1.308-.473.593-.062-.244-.133-.474-.207-.7-.919-.184,1.134.873-.619.283-1.462-.913-.743-1.076.218-.7-.646-.314-1.289-.623-1.95-.874-.045-.187.435-.032.639-.139-.9-.142-3.119-2.071-4.5-1.99l-.058-.179a44.814,44.814,0,0,0-5.3-1.674c-1.511-.368-2.949-.687-4.736-1.065-.162.4-1.531,0-2.663.1-2.577-.717-5.421-1.627-8.585-2.239-2.264-.223-.719.227-1.766.28-.089-.41-3.256-.985-1.565-.94-1.9-.343-3.122-.542-4.473-.732s-2.828-.4-5.267-.636c.5.244,1.073.41.746.489-.884-.084-1.962-.494-1.806-.655h.238c-5.49-.364-12.348-3.086-16.8-2.854l.248-.008-4.548-.167c-2.063-.31,1.277-.142-.226-.559-4.931.053-7.668-.977-11.72-.958-3-1.434-11.023-.927-15.171-1.888l.225.284c-1.1.188-1.3-.242-2.1-.358.1.215,1.163.32.48.419C95.559,1.449,90.82,1.11,86.043.787S76.456.112,71.713,0c-3.472-.052-1.954,1.383-6.327.821L66.616.3c-6.973.717-14.33.52-21.109,1.831a2.346,2.346,0,0,1,1.055-.388,12.5,12.5,0,0,0-3.224.279,5.078,5.078,0,0,0-2.09.678c-1.064.115-.284-.23-.959-.286-1.478.015-3.545,1.018-4.365.817-.14-.034.383-.189.641-.264-.908.333-4.371.766-3.394,1.009-2.575.313-4.8,1.192-6.87,1.489C25.114,6.237,21.925,6.5,21.728,7.3c-.02-.355-1.161-.12-2.465.383a15.8,15.8,0,0,0-3.432,1.8c.412-.445-1.4.486-.945-.072-1.727.906-3.155,2.016-2.678,2.118a10.936,10.936,0,0,0-4.186,3.1c-1.111,1.2-1.935,2.328-2.988,2.8-3.391,4.82-5.076,10.4-4.389,15.7C.292,33.074.12,31.574.227,30.139.288,28.7.571,27.352.2,27.391a17.129,17.129,0,0,0,.269,6.615,32.035,32.035,0,0,0,2.16,6.042c.5,1.177-.6-.5-.869-.876a34.918,34.918,0,0,0,3.921,6.042,26.046,26.046,0,0,0,4.733,4.633,2.691,2.691,0,0,1-.8-.472c.64.547,1.39,1.386,1.521,1.091l-.663-.486c-.348-.615.431-.228,1.314.288a11.568,11.568,0,0,0,2.073,1.049c-.821-.1-.054.6.629,1.252.7.616,1.32,1.2.074.989.483.279,1.128.566,1.146.324.625.526.769.78-.041.483a8.838,8.838,0,0,0,2.183,1.115,9.855,9.855,0,0,1,1.959,1.037c-.085.122-.589-.1-.914-.111.654.251,1.332.457,2.064.787.369.162.753.352,1.167.575.422.209.87.454,1.358.75-.163.015.015.243-.585-.079,3.491,1.816,6.28,2.3,10.134,4.1-.7.069-.385.253.111.5s1.18.511,1.19.816c.743.206,1.479.431,2.225.62-.263-.18-.523-.37-.781-.562,1.9.67,3.708.836,5.3,1.5L39.594,65.2c1.213.324,2.416.682,3.634.973-.664-.254-1.323-.525-1.98-.8,2.023.3-.011-.721,2.5.152-.533-.095,1.914.558,2.842,1.122h-.007a12.636,12.636,0,0,1,3.431.625c.33.264-.446.532-.231.707,1.056-.22,4.592.942,5.909.684-.428.032-.51.315-.391.4l.88-.208c.88.307,1,.392.806.592,2.711.633-.722-.878,2.448.093a4.322,4.322,0,0,1-.69.006,43.831,43.831,0,0,0,4.748.87c1.549.242,3.069.445,4.557.778.795.7-2.65-.3-1.715.342,4.362.629,9.093.778,13.295,1.407l-.778-.16c.683-.735,3.089.811,5.275.636-.529.005-.735.37-.583.3a45.566,45.566,0,0,0,4.607.391l5.756.106-.56.161c1.7.309,4.5.394,6.35.6.56-.181,1.617-.1.988-.429,5.671,1.457,10.9-.3,15.954.668-.606,0-1.445.178-.962.178,1.441-.05,2.88-.169,4.319-.25-.349-.341-.571-.2-1.481-.453a9.888,9.888,0,0,1,2.822-.42c-1.932.267.029.558.875.736-.143-.1.141-.227.066-.334,2.273.534.355-.714,3.44-.417l-.155.189A32.281,32.281,0,0,1,129,74c.535.369-1.212.266-1.276.589,1.743-.114,3.391-.963,4.989-.653-.731.156-1.794.221-2.527.376a10.283,10.283,0,0,0,3.219.236l-.126,0c.989.013,1.976-.01,2.965-.013l-.761-.067c2.094-1.216,4.422-.537,7.278-1.536-2.776.933-.433.422-.6.9.76.05,1.914.077,1.6.237,1.34-.5,2.36.053,4.254-.748.108.132,1.487-.206,1.229.205,1.792-.4-.467-.182-.34-.394a27.379,27.379,0,0,1,4.8-.818,18.146,18.146,0,0,0,5.606-1.5,20.416,20.416,0,0,0,3.43-1.674c.875-.514,1.7-1.039,3.118-1.789.538-.119.4.1.111.339a7.991,7.991,0,0,1-.713.5,13.219,13.219,0,0,0,4.266-2.078c-.233.274.123.2.653.093,1.135-.739.5-.9,2.087-1.7a4.853,4.853,0,0,1-.8,1.238A32.542,32.542,0,0,0,175,62.418c.5-.1-.491.957-.863,1.442a21.693,21.693,0,0,0,2.266-2.279,5.009,5.009,0,0,0,1.189-1.917c-.28.281-.593.529-.891.788.437-.506.494-.023.206.4-.881,1.387-1.752,1.5-1.91,1.448.273-.278.54-.561.791-.86a6.118,6.118,0,0,0-2.483,1.8,17.059,17.059,0,0,1-3.046,2.477l.5-1.035c-.576.558-1.167,1.116-1.786,1.645-.525.1-.982-.044-.036-.674a4.419,4.419,0,0,0-1.366.668,2.591,2.591,0,0,1-1.242.518c-.163.017-.112-.04.008-.123-.453.288-.921.553-1.388.821.237-.245-.416-.3.519-.606-2.746.8-4.152,2.1-5.333,1.992l.217-.108c-1.867.693-1.94.8-1.868.953s.279.3-1.115.95c-.753-.19-1.5-.4-2.236-.615l-.279.537c-.407.072-1.213.212-1.1,0-1.439.619.3.148-.516.615-2.023.007-5.389,1.134-5.938.453-.662.443,1.923.013-.151.537-.7-.69-2.424.435-4.281.251.515-.461,2.251-.419.4-.6-1.023.784-3.536.228-5.05.468-.026.539-3.3.521-5.863.855.149-.2-4.855.015-7.254-.125l.067-.094c-.441.565-2.915.582-4.712.711.063-.333.384-.469,1.353-.635l-1.688.035a5.881,5.881,0,0,1-2.015.372l.419-.421a48.79,48.79,0,0,1-7.418.239c-.169.379,2.3,1.088-.776,1.317-.111-.211-.219-.57.584-.638a5.432,5.432,0,0,1-1.468.053l1.229-.324c-1.317-.182-.694.278-1.749.223.026-.3-.777-.229-.621-.461a6.629,6.629,0,0,0,1.323.035,11.649,11.649,0,0,1-3.088-.522c.1.172-.011.4-.882.42-2.249-.058-.757-.385-2.062-.589-.552.183-1.975-.09-2.032.352a1.612,1.612,0,0,1-1.018-.373c-1.172.16-5.426-.27-4.148.291l.3.05-.191.008h0a30.538,30.538,0,0,1-5.863-.367c-1.967-.241-3.918-.575-5.812-.676l.021-.148c-2.27-.038-5.008-.481-6.654-.353-.665-.081-1.532-.466-1.225-.6a17.741,17.741,0,0,1-4.377-.6c1.758-.009-.559-.313,1.789.065a18.678,18.678,0,0,0-5.107-.741c.869-.242-1.588-.747-2.658-.808l1.5.525a30.945,30.945,0,0,1-3.262-.571l.653-.388c-4.387-1.41-8.327-.537-11.526-2.278-1.261.085,2.377.775,1.232.942a39.475,39.475,0,0,1-4.663-1.869,6.94,6.94,0,0,0-2.773-.443A6.928,6.928,0,0,1,44.9,64.38c.323.276.553.836-1.675.385-2.017-.656-2.268-1.467-.96-1.211.486.132.7.257.666.308.674.121,1.552.288.8-.123l-.312.1c-.955-.456-3.713-1.3-2.979-1.373-1.554-.326-.74.088.359.513-2.489-1.049-3.993-1.311-6.526-2.428.377.242.685.577.273.425-1.853-.832-2.29-.934-2.6-.921s-.489.126-1.764-.4c-1.323-.882.769-.363-1.847-1.281-1.437-.9-.117-.581.541-.428a12.9,12.9,0,0,1-3.1-1.5c-.859-.581-1.573-1.137-2.181-1.5l1.22.489a11.258,11.258,0,0,1-1.847-.931l.465.69c-.631-.444-1.19-.775-1.1-.9-.8-.2.225.823-1.305.293-.793-.677-2.754-1.549-2.792-2.127,2.62,1.9-.03-.589,2.291.836a10.446,10.446,0,0,1-1.612-1.063c-.067-.106.146-.022.336.07-1.163-1.013-1.487-1.15-1.9-1.2a2.833,2.833,0,0,1-.741-.19,5.191,5.191,0,0,1-1.378-.887c.479.043-.258-.86-.7-1.139.989.8.2.734-.856.145a17.359,17.359,0,0,0-2.554-2.111l.846.9a7.192,7.192,0,0,1-2.306-1.767c.061-.229,1.018.827.722.4-1.471-.811-2.129-2.913-3.622-4.477-.432-.923.349-.367-.032-1.153A5.443,5.443,0,0,1,5.5,38.682a14.058,14.058,0,0,0-.931-2.329c-.082.764,0,.9-.863-.662a18.841,18.841,0,0,0,1.81,3.669,19.3,19.3,0,0,1-1.594-2.183,25.6,25.6,0,0,0,1.643,2.994c-.888-.967-.739-.915-.708-.226a9.05,9.05,0,0,0-1.069-2.427,6.309,6.309,0,0,1-.878-2.693l.882-.137c-.126-1.433-.312-2.644-.4-4.035a10.518,10.518,0,0,1,.744-4.719c-.195.367-.335.751-.508,1.131-.222-.6.666-2.293,1.1-3.477.214.232.674-.415,1.076-.79-.117-.028.248-.626.605-1.293.385-.65.778-1.365.664-1.679.45-.391.922-.754,1.4-1.1a17.509,17.509,0,0,0,2.132-2.606A7.682,7.682,0,0,1,13.018,13.8c-.575.8.662.159-.848,1.544.8-.615,1.606-1.054,1.5-1.244.583-.171,2.22-1.827,3.219-1.987a2.94,2.94,0,0,1,1.393-1.126c.142,0,.056.135.056.135-.059-.134,1.6-.921.531-.811A41.21,41.21,0,0,0,24.738,8.65a18.421,18.421,0,0,1,5.668-1.134c1.107-.3,2.346-.589,3.554-.883,1.213-.273,2.406-.513,3.433-.711-.117.109.018.146-.376.186,2.89-.184,1.609-1.158,4.919-1.317,1.731.242-1.693.5-.63.534.3.453,1.268.28,2.454.033a11.982,11.982,0,0,1,3.721-.37l-.525.112a10.764,10.764,0,0,0,3.013-.361,25.686,25.686,0,0,1,3.807-.563s-.127.095-.005.148A41.741,41.741,0,0,1,61.845,3.08c-.814.416-1.2.251-.681.62,1.19-.1-.375-.618,2.006-.807.783.188,2.506.321,2.742.733l-2.243.083c1.163.5,2.9-.1,4.088-.014l-.148.236c3.436-.117,3.483-.709,7.187-.65L74.416,3.1c2.032-.574,1.694.348,3.72-.064l.6.6c1.337-.125,4.691-.467,7.094-.5a56.081,56.081,0,0,1-5.92.762,28.16,28.16,0,0,0,5.195-.193,6.823,6.823,0,0,1-1.735.058,22.2,22.2,0,0,1,6.424-.461c-.257.565,1.457.712,3.47.839,2.011.149,4.322.288,5.25.787,4.682-.135,9.218.794,14.628,1.225-1.837-1.071,1.582.121,1.335-.827a7.117,7.117,0,0,1,1.855.188l3.762.942c.875.361-1.219.075-1.124.293,2.746.361,1.115.51,2.909.945-.337-.368,1.009-.371,2.561-.056l-2.16-.677c3.9-.039,3.234,1.144,7.161,1.139l-1.259.132c2.006.08,7.313.948,9.358.514.336.156.763.47-.119.413,4.717.764,10.65.839,14.243,1.914l-.4.161a7.593,7.593,0,0,1,2.664.276c-.074.081-.394.157.011.244a15.936,15.936,0,0,1,3.545.373l-1.041.069c4.529,1.149,7.151.734,11.022,1.384-.142.635,3.4,1.612,5.166,2.118l-.082.078c2.672.607,4.842.994,7.012,1.461a39.623,39.623,0,0,1,6.542,1.856c1.215.968,3.463,2.153,5.542,3.832a13.32,13.32,0,0,1,4.541,5.939c-.2-.635.567-.136.842.629a4.274,4.274,0,0,0,.293.849c.091.309.184.626.267.9.166.563.235.99-.089.937a2.916,2.916,0,0,0-.048-.368,3.264,3.264,0,0,0-.231.829c-.024.165-.036.341-.044.527-.026.187-.045.382-.059.584a14.237,14.237,0,0,1-.355,2.516l.693.467a38.517,38.517,0,0,1-4.225,6.73,16.247,16.247,0,0,1-2.747,2.644,6.049,6.049,0,0,1-2.462,1.165,27.642,27.642,0,0,1-3.1,1.975l-.11-.416a82,82,0,0,1-8.35,2.532l.723-.486c-2.194.488-2.527,1.833-4.606,2.283l-.752-.5c-3.957.745-8.048,1.011-11.864,2.245.048-.1.132-.3.77-.44-1.871.3-7.288.818-6.468,1.562-.071-.28-1.093-.105-2.367.186s-2.8.711-3.851,1l.27-.466a13.26,13.26,0,0,1-4.282,1.5c-.609.038-.575-.251.239-.268-2.032.092-1.5.633-3.969.738l.869-.387a6.579,6.579,0,0,0-2.98.826c-1.277.341-3.933.419-4.285.084a4.492,4.492,0,0,1-2.577.748c-.181-.123.252-.262.47-.33-3.492.108-5.091,1.067-7.517.927-.064-.132-.226-.184-.428-.2,2.749-.3,4.964-.528,4.761-.474-.045-.384-2.27-.2-.566-.931-1.746.474-4.72,1.5-6.909,1.492a1.044,1.044,0,0,1-.3-.107l.22-.063a5.926,5.926,0,0,0-1.363.187c-.7,0-1.141-.007-1.805.049-.286-.3-2.563.061-3.672.148.127.413-1.331.479.058.7-.178-.014.206-.069.942-.154a4.18,4.18,0,0,0,.469-.087l-.072.044,2.754-.281a6.607,6.607,0,0,1-3,.437c-.547.324-1.15.659-1.493.823-1.57-.448-4.525-.589-4.958-.915-1.686.236-3.68.413-5.513.65a18.265,18.265,0,0,0-4.56.9,2.038,2.038,0,0,1-1.488-.285,11.984,11.984,0,0,0,1.514-.251c-1.922.286-5.716.355-6.161.9-2.446-.2,1.353-.54-1.992-.378l.446-.179a34.355,34.355,0,0,0-8.73.4,31.572,31.572,0,0,1-9.276,0c.5.088.757.109.859.206-8.3-.7-17.2-.059-25.318-1.635a10.1,10.1,0,0,0-4.042.114l-.459-.5c-.826.1-1.649.164-2.477.247a18.06,18.06,0,0,1-4.766-.882,22.778,22.778,0,0,0-2.5-.551,16.068,16.068,0,0,0-2.971-.236l.516.386c-1.546-.288-4.954-.553-4.64-.862a1.517,1.517,0,0,1-1.142-.009l-.011-.242-1.941-.082-1.935-.143c-2.915-.7.62-.848-3.66-1.67-1.608-.2-4.672-.142-4.1.122.643.129,1.619.444,1.623.687l-1.487-.144c-.4.64-1.676,1.137,1.847,2.274l2.6.035.751.482-2.124-.363a5.206,5.206,0,0,0,2.846.356,2.082,2.082,0,0,0,.991.56c.864-.075,1.723-.133,2.585-.221.257.315-1.2.371.441.769,1.213-.134-1.017-.772.941-.689,1.159.495.768.7,2.229.641.173.209-.145.277-.721.272,1.3-.026,3.364.407,4.069.135a11.161,11.161,0,0,0,2.568.562c.9.114,1.615.24,1.51.562a15.706,15.706,0,0,1,3.471-.147c-2.224.54,4.361.557,3.707,1.338,1.651-.505,5.751.2,8.586.063a1.628,1.628,0,0,1-.723.073,21.028,21.028,0,0,1,3.02.674c.246-.565,2.716-.565,4.062-.849,1.9.68-1.218.623-.645,1.2-.066-.483,3.4-.281,2.76-.717,1.462.437,1.267.245,2.005.777.3-.729,1.387-.027,2.636-.443,2.13.428.525.707,2.892.554,1.116.26-.994.458-.994.458m55.968-3.177v.009l-1.148.129,1.147-.138m4.677-.51c-.571.048-1.28.126-2.029.213-.179-.127-.018-.3.453-.342-.245.126.865.085,1.576.129M116.5,60.57c.731-.127.985-.067,1.095.01-.348.039-.753.091-1.284.169-.02.018-.063.04-.083.06a.715.715,0,0,1,.272-.239" transform="translate(0 0)" fill="#eb7440"/>
        <path id="Caminho_67" data-name="Caminho 67" d="M152.972,81.346c-.105.019-.163.042-.3.059.154.023.3.042.448.054l.25-.156-.4.043" transform="translate(-37.746 -20.101)" fill="#eb7440"/>
        <path id="Caminho_68" data-name="Caminho 68" d="M128.025,97.088l-.1-.016a.807.807,0,0,1,.2.073.753.753,0,0,1-.1-.057" transform="translate(-31.628 -24)" fill="#eb7440"/>
        <path id="Caminho_69" data-name="Caminho 69" d="M253.27,66.53l-.062-.087-.323.313Z" transform="translate(-62.523 -16.427)" fill="#eb7440"/>
        <path id="Caminho_70" data-name="Caminho 70" d="M162.354,99.635a.777.777,0,0,0,.343.1,1.134,1.134,0,0,0-.343-.1" transform="translate(-40.14 -24.634)" fill="#eb7440"/>
        <path id="Caminho_71" data-name="Caminho 71" d="M177.219,99.036c.531.023,1.06.02,1.591.031-.69-.032-1.19-.026-1.591-.031" transform="translate(-43.815 -24.485)" fill="#eb7440"/>
        <path id="Caminho_72" data-name="Caminho 72" d="M188.646,98.275a.466.466,0,0,0,.15-.2l-.017,0Z" transform="translate(-46.64 -24.248)" fill="#eb7440"/>
        <path id="Caminho_73" data-name="Caminho 73" d="M12.583,65.44c-.09-.078-.181-.153-.266-.215-.641-.493-.227-.132.266.215" transform="translate(-2.964 -16.067)" fill="#eb7440"/>
        <path id="Caminho_74" data-name="Caminho 74" d="M61.452,88.485c-.438-.035-.871-.067-1.32-.137.694.216,1.24.364,1.32.137" transform="translate(-14.867 -21.843)" fill="#eb7440"/>
        <path id="Caminho_75" data-name="Caminho 75" d="M19.778,12.447s0,0,0,.009l.262-.137Z" transform="translate(-4.89 -3.046)" fill="#eb7440"/>
        <path id="Caminho_76" data-name="Caminho 76" d="M57.7,87.657a8.424,8.424,0,0,0,1.827.52,12.986,12.986,0,0,0-1.827-.52" transform="translate(-14.267 -21.672)" fill="#eb7440"/>
        <path id="Caminho_77" data-name="Caminho 77" d="M235.292,81.408l.308-.309c-.025-.014-.024-.047-.014-.084Z" transform="translate(-58.173 -20.03)" fill="#eb7440"/>
        <path id="Caminho_78" data-name="Caminho 78" d="M235.682,80.886l.29-.39a1.222,1.222,0,0,0-.29.39" transform="translate(-58.269 -19.902)" fill="#eb7440"/>
        <path id="Caminho_79" data-name="Caminho 79" d="M236.64,79.375c-.19.28-.365.577-.574.845a2.266,2.266,0,0,0,.574-.845" transform="translate(-58.364 -19.624)" fill="#eb7440"/>
        <path id="Caminho_80" data-name="Caminho 80" d="M222.34,90.264l-.055.2a.207.207,0,0,0,.055-.2" transform="translate(-54.957 -22.317)" fill="#eb7440"/>
        <path id="Caminho_81" data-name="Caminho 81" d="M218.066,91.771a15.55,15.55,0,0,0,3.128-1.09l.048-.157c-.409.461-2.527.734-3.176,1.247" transform="translate(-53.914 -22.381)" fill="#eb7440"/>
        <path id="Caminho_82" data-name="Caminho 82" d="M198.857,94.338q1.427-.166,2.848-.384c-.525-.063-1.207-.152.059-.443-3.631.177.806.248-2.907.827" transform="translate(-49.165 -23.119)" fill="#eb7440"/>
        <path id="Caminho_83" data-name="Caminho 83" d="M186.8,95.6c1.534-.231-.041-.234.032-.335-.962.247-1.2.309-.032.335" transform="translate(-45.989 -23.552)" fill="#eb7440"/>
        <path id="Caminho_84" data-name="Caminho 84" d="M101.311,93.867l.206-.359c-1.188-.116-.032.146-.206.359" transform="translate(-24.965 -23.112)" fill="#eb7440"/>
        <path id="Caminho_85" data-name="Caminho 85" d="M84.746,94.011l1.109.449.61-.245Z" transform="translate(-20.952 -23.243)" fill="#eb7440"/>
        <path id="Caminho_86" data-name="Caminho 86" d="M75.434,88.5l.521.051-1.975-.266Z" transform="translate(-18.291 -21.827)" fill="#eb7440"/>
        <path id="Caminho_87" data-name="Caminho 87" d="M37,11.218l-.462-.373c-.754.28-.778.836.462.373" transform="translate(-8.903 -2.681)" fill="#eb7440"/>
        <path id="Caminho_88" data-name="Caminho 88" d="M98.8,4.706a4.951,4.951,0,0,0,2.639.184c-1.053-.048-2.1-.245-2.639-.184" transform="translate(-24.428 -1.161)" fill="#eb7440"/>
        <path id="Caminho_89" data-name="Caminho 89" d="M260.518,50.944a6.918,6.918,0,0,0,.163-.833,15.1,15.1,0,0,1-.5,1.5Z" transform="translate(-64.328 -12.389)" fill="#eb7440"/>
      </g>
    </g>
  </g>
</svg>
