<svg id="Grupo_20" data-name="Grupo 20" xmlns="http://www.w3.org/2000/svg" xmlns:xlink="http://www.w3.org/1999/xlink" width="311.834" height="218.052" viewBox="0 0 311.834 218.052">
  <defs>
    <clipPath id="clip-path">
      <rect id="Retângulo_37" data-name="Retângulo 37" width="311.834" height="218.052" fill="none"/>
    </clipPath>
  </defs>
  <g id="Grupo_19" data-name="Grupo 19" clip-path="url(#clip-path)">
    <path id="Caminho_195" data-name="Caminho 195" d="M245.962,162.309c48.521-8.771,69.087-43.294,68.255-70.314-1.4-45.273-47.485-71.118-86.518-80.55-39.363-9.512-81.826-7.509-120.312,4.943-33.331,10.785-80.51,33.44-83.479,73.621-1.393,18.86,8.413,37.332,21.937,49.864,36.4,33.728,96.971,42.186,144.054,34.169,2.059,14.937-3.426,33.168-15.029,42.8,29.619-4.76,59.326-26.936,71.092-54.531" transform="translate(-23.777 -0.554)" fill="#01365b"/>
    <path id="Caminho_196" data-name="Caminho 196" d="M229.183,165.031c48.927-6.116,71.343-39.469,71.984-66.5,1.072-45.285-43.541-73.6-82-85.147C180.378,1.745,137.869,1.432,98.762,11.77,64.893,20.724,16.55,40.778,11.4,80.739,8.979,99.5,17.765,118.477,30.585,131.727c34.508,35.663,94.529,47.408,141.98,41.967,1.242,15.028-5.228,32.935-17.338,41.919,29.834-3.14,60.705-23.667,73.956-50.582" transform="translate(0.766 -0.438)" fill="#fff"/>
    <path id="Caminho_197" data-name="Caminho 197" d="M8.248,76.566c4.036-20.5,19.648-35.846,36.823-46.448C62.767,19.195,83,12.083,103.164,7.318A230.139,230.139,0,0,1,191.684,3.9c23.769,3.752,47.1,11.285,67.662,23.936,18.094,11.131,34.444,26.94,41.31,47.506a63.923,63.923,0,0,1,2.783,29.278,65.465,65.465,0,0,1-8.411,23.467c-10.482,17.868-28.575,29.958-48.19,35.752a113.083,113.083,0,0,1-15.968,3.417c-11.557,21.827-32.52,38.153-55.66,46.245a92.469,92.469,0,0,1-20.591,4.647c-2.558.276-4.468-3.022-2.179-4.741,11.127-8.363,16.652-23.114,16.44-36.863a210.1,210.1,0,0,1-66.887-4.278c-23.016-5.249-45.593-14.523-64.1-29.411-9.681-7.787-18.225-17.1-23.79-28.287-5.871-11.807-8.42-24.966-5.854-38.006m6.5,19.389a66.763,66.763,0,0,0,17.123,32.614c15.494,16.43,36.071,27.309,57.4,34.119a200.038,200.038,0,0,0,67.2,8.974q7.884-.264,15.727-1.151a2.875,2.875,0,0,1,3.21,2.7c1.018,13.059-3.181,27.574-11.871,37.8a95.705,95.705,0,0,0,51.177-30.8A79.028,79.028,0,0,0,225.5,164.151a3.116,3.116,0,0,1,1.58-1.76,3.615,3.615,0,0,1,1.681-.534l.058-.011a94.844,94.844,0,0,0,32.24-9.782,73.5,73.5,0,0,0,11.962-7.767q2.714-2.172,5.216-4.591,1.216-1.176,2.375-2.409c.343-.365.681-.735,1.019-1.105s.413-.457.88-1.009a68.248,68.248,0,0,0,7.311-10.44,59.97,59.97,0,0,0,4.719-10.652,55.838,55.838,0,0,0,2.472-24.157c-2.187-20.415-15.067-37.47-30.882-49.76-16.888-13.125-37.215-21.719-57.637-26.841a220.967,220.967,0,0,0-84.838-4.193,225.891,225.891,0,0,0-34.982,8q-6.893,2.139-13.644,4.7c-4.562,1.742-8.823,3.555-13.476,5.795a120.187,120.187,0,0,0-25.119,15.7C29.312,49.28,23.021,56.329,19.022,64.561a49.914,49.914,0,0,0-4.278,31.393" transform="translate(1.253 -0.115)" fill="#01365b"/>
    <path id="Caminho_198" data-name="Caminho 198" d="M335.044,19.925a66.048,66.048,0,0,0-10.086,4.08,77.46,77.46,0,0,0-9.779,5.84,76.011,76.011,0,0,0-8.393,6.939,68.9,68.9,0,0,0-7.227,8.016,67.51,67.51,0,0,0-6.629,10.575c-1.446,2.872-7.814,1.517-6.045-2,7.1-14.095,19.233-25.606,33.161-32.873a80.184,80.184,0,0,1,12.731-5.31c1.443-.459,3.588-.149,4.3,1.37s-.671,2.925-2.035,3.359" transform="translate(-282.995 -1.519)" fill="#01365b"/>
    <path id="Caminho_199" data-name="Caminho 199" d="M57.958,52.137A95.237,95.237,0,0,0,49.98,40.9,94.279,94.279,0,0,0,40.538,31a89.4,89.4,0,0,0-10.547-8.311q-1.445-.984-2.924-1.918-.3-.187-.592-.372a3.4,3.4,0,0,0-.428-.261c-.5-.3-1-.6-1.5-.892q-3.024-1.757-6.162-3.3c-1.371-.675-2.031-.981-3.378-1.572q-1.762-.77-3.552-1.473C9.076,11.968,6.6,11.1,4.2,10.381A6.925,6.925,0,0,1,.29,7.663C-.343,6.646.075,5.646,1.413,6.046A109.821,109.821,0,0,1,52.905,39.4,104.837,104.837,0,0,1,63,53.239c.668,1.095.151,1.877-1.123,1.617a6.583,6.583,0,0,1-3.915-2.719" transform="translate(248.546 -0.603)" fill="#01365b"/>
    <path id="Caminho_200" data-name="Caminho 200" d="M45.853,18.025a69.956,69.956,0,0,0-30.105-14.5c-.607-.127,1.575-1.566,1.744-1.675A21.851,21.851,0,0,1,19.749.569c.363-.178,1.067-.643,1.469-.559A70.527,70.527,0,0,1,51.653,14.589c.273.226-2.455,1.977-2.671,2.1-.442.262-2.59,1.775-3.128,1.331" transform="translate(246.105 0)" fill="#01365b"/>
  </g>
</svg>
