<svg xmlns="http://www.w3.org/2000/svg" width="1366" height="910.667" viewBox="0 0 1366 910.667">
  <g id="Grupo_8" data-name="Grupo 8" opacity="0.255">
    <rect id="Retângulo_4" data-name="Retângulo 4" width="1366" height="910.667" fill="#f6f6f6"/>
    <g id="Grupo_9" data-name="Grupo 9">
      <rect id="Retângulo_5" data-name="Retângulo 5" width="1366" height="1.517" transform="translate(0 118.653)" fill="#80b5bc"/>
      <rect id="Retângulo_6" data-name="Retângulo 6" width="1366" height="1.519" transform="translate(0 160.167)" fill="#80b5bc"/>
      <rect id="Retângulo_7" data-name="Retângulo 7" width="1366" height="1.519" transform="translate(0 39.419)" fill="#80b5bc"/>
      <rect id="Retângulo_8" data-name="Retângulo 8" width="1366" height="1.519" transform="translate(0 80.934)" fill="#80b5bc"/>
      <rect id="Retângulo_9" data-name="Retângulo 9" width="1366" height="1.519" transform="translate(0 202.018)" fill="#80b5bc"/>
      <rect id="Retângulo_10" data-name="Retângulo 10" width="1366" height="1.517" transform="translate(0 243.534)" fill="#80b5bc"/>
      <rect id="Retângulo_11" data-name="Retângulo 11" width="1366" height="1.517" transform="translate(0 285.049)" fill="#80b5bc"/>
      <rect id="Retângulo_12" data-name="Retângulo 12" width="1366" height="1.517" transform="translate(0 326.782)" fill="#80b5bc"/>
      <rect id="Retângulo_13" data-name="Retângulo 13" width="1366" height="1.519" transform="translate(0 368.842)" fill="#80b5bc"/>
      <rect id="Retângulo_14" data-name="Retângulo 14" width="1366" height="1.517" transform="translate(0 410.601)" fill="#80b5bc"/>
      <rect id="Retângulo_15" data-name="Retângulo 15" width="1366" height="1.517" transform="translate(0 452.246)" fill="#80b5bc"/>
      <rect id="Retângulo_16" data-name="Retângulo 16" width="1366" height="1.519" transform="translate(0 493.929)" fill="#80b5bc"/>
      <rect id="Retângulo_17" data-name="Retângulo 17" width="1366" height="1.517" transform="translate(0 535.445)" fill="#80b5bc"/>
      <rect id="Retângulo_18" data-name="Retângulo 18" width="1366" height="1.519" transform="translate(0 576.958)" fill="#80b5bc"/>
      <rect id="Retângulo_19" data-name="Retângulo 19" width="1366" height="1.519" transform="translate(0 619.576)" fill="#80b5bc"/>
      <rect id="Retângulo_20" data-name="Retângulo 20" width="1366" height="1.517" transform="translate(0 661.426)" fill="#80b5bc"/>
      <rect id="Retângulo_21" data-name="Retângulo 21" width="1366" height="1.519" transform="translate(0 702.941)" fill="#80b5bc"/>
      <rect id="Retângulo_22" data-name="Retângulo 22" width="1366" height="1.517" transform="translate(0 744.456)" fill="#80b5bc"/>
      <rect id="Retângulo_23" data-name="Retângulo 23" width="1366" height="1.519" transform="translate(0 785.97)" fill="#80b5bc"/>
      <rect id="Retângulo_24" data-name="Retângulo 24" width="1366" height="1.519" transform="translate(0 827.99)" fill="#80b5bc"/>
      <rect id="Retângulo_25" data-name="Retângulo 25" width="1366" height="1.519" transform="translate(0 869.729)" fill="#80b5bc"/>
      <rect id="Retângulo_26" data-name="Retângulo 26" width="2.274" height="910.667" transform="translate(138.54)" fill="#c11f2f"/>
    </g>
  </g>
</svg>
